<svg id="Calque_1" data-name="Calque 1" xmlns="http://www.w3.org/2000/svg" viewBox="0 0 168 168"><title>adh</title><path d="M337.44,381.68v-168h168v168ZM343.8,220V374.35H499.08V220Z" transform="translate(-337.44 -213.68)"/><path d="M429.46,364.23c-5,0-10,.15-15,0-9.17-.34-18.39-.43-27.49-1.52-5.76-.69-11.42-2.74-17-4.66a13.51,13.51,0,0,1-8.13-7.38c-1.92-4.33-1.06-12.73,3.88-17.5,6-5.81,13.05-10,20.58-13.4,2.55-1.15,5.09-2.35,7.73-3.26,6.77-2.35,7.71-9.54,3.74-14.44-10.09-12.48-13.6-26.92-10.27-42.7,2.76-13,13.7-20.87,27.73-20.34,13.59.52,23.93,10.35,25.44,24.08a51.64,51.64,0,0,1-11.65,39.72c-2,2.41-1.74,5.16-1.83,7.95a8.44,8.44,0,0,1-.84,3.93c-4.08,6.75-6.82,13.85-6.8,21.88a41,41,0,0,0,7.16,22.71c.91,1.4,1.92,2.73,2.89,4.08Z" transform="translate(-337.44 -213.68)"/><path d="M459.23,368.68c-17-.06-32-13.13-31.87-32a31.34,31.34,0,0,1,31-31.71,31.88,31.88,0,1,1,.91,63.75Zm4.42-27.18c4,0,7.58-.06,11.17,0,1.38,0,2.11-.16,2-1.77a52.22,52.22,0,0,1,0-6c.07-1.29-.44-1.72-1.64-1.69-1.76,0-3.52,0-5.28,0h-6.36V319.13h-9v13H441.69v9.6h13V354.3h9Z" transform="translate(-337.44 -213.68)"/></svg>