<svg id="Calque_1" data-name="Calque 1" xmlns="http://www.w3.org/2000/svg" viewBox="0 0 95 90"><title>del_noir</title><path d="M374,253.28h95v90H374Zm19.89,64.13,8.66,8.11c5.08-4.8,10.32-9.21,14.87-14.24,3.27-3.6,5.21-3.09,8.27.14,4.65,4.9,9.83,9.3,14.79,13.93,1.61-1.25,3-2.2,4.23-3.28,4.77-4.07,4.83-6.05.18-10.42-3.26-3.07-6.5-6.21-10-9-3.74-2.9-3.06-5.11.14-7.87,5.14-4.44,10.05-9.16,15.15-13.85l-9.47-8.66c-6.44,5.92-12.76,11.71-19.16,17.58l-19.06-17.51L394,279.73l16.78,19Z" transform="translate(-374 -253.28)"/></svg>