<svg id="Calque_1" data-name="Calque 1" xmlns="http://www.w3.org/2000/svg" viewBox="0 0 168.81 168.91"><title>edit</title><path d="M505.84,383.28H337V214.38H505.84ZM398.73,267.18c0-6.42,0-12.4,0-18.38,0-2.84.91-4.33,4-4.28,7.66.12,15.32.1,23,0,3.24,0,4.29,1.43,4.35,4.57a186,186,0,0,0,1,18.9c.91,7.44,3.46,9.74,11,10.32a141.41,141.41,0,0,0,16.47.2c4-.15,5.58.91,5.52,5.27-.24,17.15-.18,34.31,0,51.47,0,3.47-.59,5.77-4.48,6.39-1,.15-2.67,1.92-2.51,2.3.93,2.23,1.93,4.77,3.71,6.17,1.09.86,4,.42,5.48-.42,5.63-3.1,6.91-8.62,7-14.5.18-15.82.11-31.64.5-47.46.15-6-2-10.4-6.11-14.57-8-8-15.34-16.64-23.4-24.56a61.46,61.46,0,0,0-14.17-10.79c-11-5.72-22.7-3.82-34.19-1.62-4.54.87-6.19,4.79-6.6,9-.36,3.8-.49,7.64-.48,11.47C388.85,262.53,391.84,265.8,398.73,267.18ZM441,316.79c-12.3-11.6-23.86-22.59-35.6-33.38-.76-.7-3.52-.44-4.36.38-5.11,5-9.8,10.43-14.9,15.44-2.79,2.74-2.16,4.56.4,6.9,6.88,6.28,13.6,12.74,20.4,19.1,4.47,4.17,9,8.3,13.93,12.86ZM438.3,350.4l.27-1.56a21.44,21.44,0,0,0-3.54-1.45c-10.54-2.35-21-4.83-31.66-6.81-4.35-.82-5.11-2.89-5-6.87a28.25,28.25,0,0,0-1.75-11.12c-1-2.4-3.85-4-5.87-6a124,124,0,0,0-.88,23.88c.43,5.9,3.41,8.81,9.36,9.15,11.1.63,22.24.56,33.36.77C434.5,350.43,436.4,350.4,438.3,350.4ZM370.65,250c-5.6,6.27-11.39,12.12-16.26,18.66-1.14,1.52.41,5.54,1.51,8.07.81,1.84,3,3.09,4.44,4.66,2,2.12,3.81,2.36,5.78-.09,1.46-1.81,3.19-3.4,4.75-5.12,3.86-4.25,7.69-8.53,11.54-12.81Zm-3,37.81,11.79,10.91,19.85-21.27-11.71-10.9Zm56.76,53.47L454.85,350c-3.84-10.58-7.14-19.65-10.8-29.72Z" transform="translate(-337.03 -214.38)"/></svg>