<svg id="Calque_1" data-name="Calque 1" xmlns="http://www.w3.org/2000/svg" viewBox="0 0 84.84 84.85"><title>home</title><path d="M379.12,324.86v-54c.06-.24.13-.47.17-.7a16.74,16.74,0,0,1,11.17-13.7,34.56,34.56,0,0,1,4.07-1h54a35.37,35.37,0,0,1,3.85.92A16.94,16.94,0,0,1,464,272.72q0,25.14,0,50.29a18.59,18.59,0,0,1-.39,3.86,16.93,16.93,0,0,1-16.71,13.39q-25.31,0-50.62,0a16.81,16.81,0,0,1-16.12-11.42A37.93,37.93,0,0,1,379.12,324.86Zm66.31.78V301.78H453c-10.51-10.51-21.05-21-31.45-31.45l-31.5,31.51h7.65v23.78H417.6V309.84h7.94v15.8Z" transform="translate(-379.12 -255.43)"/></svg>