<svg id="Calque_1" data-name="Calque 1" xmlns="http://www.w3.org/2000/svg" viewBox="0 0 168 168"><title>keyboard</title><path d="M337.44,381.68v-168h168v168Zm161.64-7.24V220.05H343.8V374.44Z" transform="translate(-337.44 -213.68)"/><path d="M434.36,298.66c-3.1,3-6.14,6-9.33,8.85a4.86,4.86,0,0,1-3,1.13q-27.34.09-54.71,0c-4.53,0-6.83-2.47-6.83-7V258.94c0-4.26,1.83-6.56,6.16-6.85,4.7-.32,9.43-.18,14.14-.18q21.36,0,42.71,0a6.75,6.75,0,0,0,1.09-.14c.15-3.18.25-6.34.47-9.49a18.59,18.59,0,0,1,.7-3.26c.54-2.15,1.69-3.41,4.42-2.55-3.63,4.53-3,9.84-2.88,15.37h2.9q26.51,0,53,.11a17.89,17.89,0,0,1,4.49.57,5.45,5.45,0,0,1,3.78,5.2q0,22.44,0,44.88c0,.61-.06,1.23-.13,2.41l-2.95-2.5a13.53,13.53,0,0,0-2.56-2.15c-3.74-1.82-5-4.73-4.36-8.73.26-1.5-.47-2.25-2-2.18-1.12,0-2.24,0-3.36,0-3.54,0-3.54,0-4,3.46-1.74-.39-3.94.26-4.44-2.45,0-.21-.26-.57-.39-.56-2.85.05-5.9-.44-8.48.43-2,.67-3.48,1.39-5.18-.24a2.83,2.83,0,0,0-1.7-.6c-1.35-.09-2.72,0-4.08,0-2-.12-3.5,0-3.16,2.75.07.6-.79,1.59-1.46,1.95-2.73,1.47-5.56,2.75-8.35,4.11,0-2.15-.16-4.3,0-6.43s-.65-2.41-2.47-2.4c-7.36.05-7.32,0-6.95,7.29.07,1.49.71,2,2,1.95Zm-8.9-23.06c-3.33,0-6.36,0-9.38,0-4.42,0-4.41.06-4.39,4.4,0,.8-.09,1.6-.12,2.4-.05,1.58.44,2.57,2.31,2.55q9.36-.07,18.71,0c1.63,0,2.26-.6,2.23-2.28-.08-4.72.05-9.44,0-14.16-.16-7.52,1.68-6.73-6.88-6.73-1.89,0-2.51.81-2.47,2.64C425.53,268,425.46,271.6,425.46,275.6Zm-23,23.07v.06h13.66c4.93,0,4.92,0,5-4.81,0-.79.13-1.59.11-2.39,0-1.28-.52-2.06-2-2.06q-16.54,0-33.09,0c-1.43,0-2,.59-1.94,2a46.89,46.89,0,0,1,0,5c-.1,1.7.61,2.22,2.25,2.19C391.77,298.63,397.13,298.67,402.49,298.67Zm13.78-27.52c4.46-.1,5.28,1.06,4.84-4.82,0-.24,0-.48,0-.71.15-3.71.06-3.82-3.51-3.82h-1.19c-4.7,0-4.7,0-4.72,4.74S411.68,271.15,416.27,271.15Zm-22.74-4.56c0-4.74.91-4.85-4.71-4.84-5.21,0-4.65-.15-4.62,4.67,0,5.15-.77,4.71,4.7,4.72C393.53,271.15,393.53,271.15,393.53,266.59Zm9.21,4.56c5,0,4.58.63,4.67-4.63v-.24c0-4.51,0-4.54-4.58-4.53-5.87,0-4.8-.07-4.8,4.7C398,271.54,397.11,271.12,402.74,271.15Zm51.25-4.5a13.53,13.53,0,0,1,0-1.91c.35-2.36-.66-3.2-3-3a38.54,38.54,0,0,1-4.3,0c-1.48,0-2.25.57-2.11,2.15.06.71-.05,1.43,0,2.15.06,6-.27,5,5,5S453.93,271.45,454,266.65Zm9.36,4.5a9.74,9.74,0,0,1,1.43,0c2.43.35,3.2-.64,3.08-3.08-.34-6.91,1.56-6.27-6.61-6.34-2.26,0-3.05.83-2.81,3,.05.47,0,.95,0,1.43C458.54,271.75,457.61,271.08,463.35,271.15ZM370.5,266.3c0,4.85,0,4.85,4.27,4.85,5,0,5,0,5-4.92,0-4.73.57-4.46-4.55-4.47C369.55,261.74,370.5,261.68,370.5,266.3Zm111,.25a13.66,13.66,0,0,1,0-1.92c.36-2.27-.67-3.09-2.83-2.87-.47.05-1,0-1.44,0-6,0-4.89-.12-4.92,4.82,0,4.58,0,4.58,4.57,4.58S481.5,271.15,481.51,266.55Zm-88,13.65c-.08-4.81.78-4.56-4.63-4.59-5.85,0-4.69.1-4.71,4.73,0,4.84-.79,4.59,4.62,4.59C394.64,284.94,393.39,285.08,393.55,280.2ZM398,280c.11,5.32-1,4.87,5,4.89,4.37,0,4.4,0,4.39-4.42,0-5.52.34-4.88-4.89-4.87C397.56,275.66,398,274.94,398,280Zm46.58.15c.09,5.38-.35,4.71,4.79,4.74,5.56,0,4.59.18,4.59-4.58,0-5.31.78-4.7-4.66-4.74S444.7,275.41,444.59,280.19Zm18.4,4.74c5.58,0,4.78.35,4.81-4.65,0-5.18.53-4.61-4.55-4.66-5.61-.05-4.79-.22-4.81,4.65C458.43,285.42,457.85,284.89,463,284.93Zm-83.29-4.57c0-5.24.58-4.73-4.46-4.75-5.84,0-4.67-.21-4.73,4.7-.06,4.62,0,4.62,4.56,4.62S379.6,284.93,379.7,280.36Zm101.87,0c-.13-5.4.56-4.73-4.73-4.78-5.56-.06-4.47,0-4.51,4.46,0,4.86,0,4.89,4.78,4.86S481.46,285.6,481.57,280.39ZM379.68,294.22c-.08-4.78-.08-4.81-4.86-4.77s-4.4-.65-4.37,4.35c0,5.51-.68,4.9,4.79,4.9C380.22,298.71,379.73,299.23,379.68,294.22Z" transform="translate(-337.44 -213.68)"/><path d="M491.16,335.23c.4,16.72-13.31,31.19-30.55,31.78a31.59,31.59,0,0,1-32.77-33.2c.75-17.49,15.16-30.63,32.89-30.29C477.36,303.84,491.48,318.53,491.16,335.23ZM455,340V352.8h9.11V339.85H477v-9.18h-13v-13a51.53,51.53,0,0,1-6,0c-2.48-.31-3.22.6-3.09,3,.18,3.31.05,6.63.05,10.2H442V340Z" transform="translate(-337.44 -213.68)"/></svg>