<svg id="Calque_1" data-name="Calque 1" xmlns="http://www.w3.org/2000/svg" viewBox="0 0 168 168"><title>laptop</title><path d="M337.44,381.68v-168h168v168ZM343.8,220v154.4H499.08V220Z" transform="translate(-337.44 -213.68)"/><path d="M460.33,305.29a30.87,30.87,0,1,1-30.85,32.35C428.7,318.18,444.72,304.79,460.33,305.29ZM456,340.66v12.56h8.8V340.56h12.64v-9H464.6V318.87c-2.35,0-4.42.11-6.47,0-1.8-.13-2.4.49-2.34,2.29.12,3.4,0,6.8,0,10.53H443.24v9Z" transform="translate(-337.44 -213.68)"/><path d="M471.34,251.78H384.23v54.37h49.34c-3.08,3.71-5.33,6.86-10.89,6.64-14-.55-28-.19-42-.19h-2.94c0-1-.11-1.65-.11-2.34q0-30.12,0-60.22c0-4,1-4.86,5-4.86h90.44c3.34,0,4.59,1,4.59,4q0,25.18,0,50.38c0,.31-.06.62-.13,1.31a35.67,35.67,0,0,1-5.29-2.28c-.62-.39-.91-1.74-.91-2.65-.05-13.84,0-27.67,0-41.5Z" transform="translate(-337.44 -213.68)"/><path d="M425.88,315.39c-.5,2.59-1.81,3.36-4.12,3.34-12.23-.09-24.46,0-36.69,0-3.81,0-5.37,1.13-7,5.37a21.83,21.83,0,0,0,3.35.55c10.15,0,20.31,0,30.46,0,1.07,0,2.23-.31,2.73,1.21.11.35,1.07.55,1.66.57,1.66.08,3.33,0,5.2,0l-.75,4.24c-.8.05-1.5.13-2.2.13H367.46a4.85,4.85,0,0,1-1.43,0,17,17,0,0,1-2.09-.95,7.51,7.51,0,0,1,1-2c3.71-3.75,7.45-7.48,11.27-11.12a4.5,4.5,0,0,1,2.67-1.28C394.47,315.37,410.05,315.39,425.88,315.39Z" transform="translate(-337.44 -213.68)"/><path d="M420.34,332.49v3.09c-.64.06-1.25.17-1.86.17q-25.19,0-50.37,0c-3.24,0-4.28-1.05-4.14-4.21C382.72,332.39,401.52,330.74,420.34,332.49Z" transform="translate(-337.44 -213.68)"/><path d="M439.13,285.53l-6,.58c.78,1.94,1.36,3.68,2.16,5.3.94,1.89.56,3-1.53,3.5-.76.17-1.48.49-2.46.82L428,288l-4.51,3.77V269.22Z" transform="translate(-337.44 -213.68)"/><path d="M428.47,273.13c1.34-3.91,1.26-7.36-3-9.26a5.69,5.69,0,0,0-7,2.18c-1.26,1.87-1.64,4-.34,5.83a28.43,28.43,0,0,0,4.1,3.95c-2.62.36-4.92-1.56-5.84-4.89a7.13,7.13,0,0,1,13-5.44C431.1,268.28,430.84,271.41,428.47,273.13Z" transform="translate(-337.44 -213.68)"/><path d="M426.55,270.64c-1.51-3.6-2.46-4.42-4.26-3.66s-1.77,2-.13,5.41c-2.32-.82-3.18-2.37-2.43-4.39a3.83,3.83,0,0,1,5.28-2.17A3.24,3.24,0,0,1,426.55,270.64Z" transform="translate(-337.44 -213.68)"/></svg>