<svg id="Calque_1" data-name="Calque 1" xmlns="http://www.w3.org/2000/svg" viewBox="0 0 168 168"><title>mouse</title><path d="M337.44,381.68v-168h168v168Zm6.27-7.33H499.08V220.05H343.71Z" transform="translate(-337.44 -213.68)"/><path d="M491.62,335.93c.53,17.39-13.59,32.23-31,33a32.66,32.66,0,1,1-2.83-65.26C478.63,303.07,492,320.09,491.62,335.93Zm-50.72,5.19h13.38v13.15h9.43V341c4,0,7.71-.06,11.44,0,1.51,0,2.24-.26,2.09-2a28.17,28.17,0,0,1,0-5c.19-1.94-.33-2.68-2.44-2.57-3.65.19-7.32,0-11.21,0V318.1a61.13,61.13,0,0,1-6.66-.05c-2.28-.26-2.77.76-2.73,2.72.08,3.5,0,7,0,10.82H440.9Z" transform="translate(-337.44 -213.68)"/><path d="M419,348.42c-7.93.73-15.59,1-22.85-2.27-10.86-4.91-16.3-13.56-16.57-25.3-.25-10.64,0-21.28,0-31.92v-2.61c22.63,11.07,45.09,11.12,67.79,0a73.19,73.19,0,0,1-.1,7.49c-.07.68-1.19,1.5-2,1.82-13.33,5.14-22.08,14.56-26.39,28.13C416.31,331.89,416.72,340.09,419,348.42Z" transform="translate(-337.44 -213.68)"/><path d="M412.31,248.19c0,1-.14,1.91-.1,2.86.11,2.73.24,5.23-2.77,7-1.16.68-1.83,3-1.91,4.6a133.27,133.27,0,0,0,0,15.09,8,8,0,0,0,2.44,5.09c1.67,1.42,2.44,2.72,2.24,4.82-.13,1.34,0,2.7,0,4.21a69.36,69.36,0,0,1-31-8.08,3,3,0,0,1-1.48-1.94c-.77-8.57.74-16.57,6.44-23.34,6.12-7.26,14.24-9.89,23.45-9.91a24.08,24.08,0,0,0,2.79-.32Z" transform="translate(-337.44 -213.68)"/><path d="M414.7,248.24c2.36.17,4.73.38,7.1.52,14,.82,25.71,13.29,25.61,27.32,0,7.22-.08,7.14-6.83,10.19-8.12,3.66-16.72,5-25.74,5.59,0-2.23-.12-4.38.08-6.49a3.33,3.33,0,0,1,1.52-1.92,6.67,6.67,0,0,0,3.11-5.86c0-4.95.21-9.92-.11-14.85a7.79,7.79,0,0,0-2.41-5.13,5.66,5.66,0,0,1-2.26-5.36c.07-1.35,0-2.71,0-4.07Z" transform="translate(-337.44 -213.68)"/><path d="M416.64,266.73c0,1.59.06,3.18,0,4.77a2.91,2.91,0,0,1-3.18,3.1c-2,0-3-1.2-3.06-3.18,0-3,0-6,0-9.06,0-2,.95-3.15,3-3.2s3.13,1.09,3.21,3.27C416.68,263.86,416.64,265.29,416.64,266.73Z" transform="translate(-337.44 -213.68)"/><path d="M414.74,248.18h-2.43l.05.06c.31-4.26.5-8.53,1.05-12.76.08-.63,1.81-1,3.08-1.26-2.37,4.6-1.57,9.37-1.79,14Z" transform="translate(-337.44 -213.68)"/></svg>