<svg id="Calque_1" data-name="Calque 1" xmlns="http://www.w3.org/2000/svg" viewBox="0 0 169 169"><title>new</title><path d="M337,383.28v-169H506v169Zm91.57-101.67c2.88,10.86,5.64,21.43,8.52,32,.73,2.69,2.06,4.78,5.49,4.75s5-1.53,5.94-4.75c1.34-4.79,3.05-9.48,4.76-14.16.47-1.29,1.51-2.38,2.59-4,2.2,6.78,3.76,12.74,6.17,18.33.83,1.92,3.91,4.13,5.78,4s4.31-2.69,5.35-4.76c1.61-3.22,2.32-6.9,3.29-10.41,1.93-6.93,3.79-13.88,5.75-21.09h-7.82c-2,7.5-4,14.72-5.92,21.93h-1.58c-1.94-5.57-3.61-11.26-6-16.66-.94-2.17-3.36-3.68-5.11-5.49-1.79,1.77-3.64,3.48-5.32,5.36-.5.55-.46,1.57-.72,2.36q-2.77,8.51-5.58,17H443c-1.45-6.07-2.85-12.16-4.37-18.22C436.76,280.46,436.67,280.43,428.57,281.61Zm-41.3,21.15-1.61.43c-3.1-4.8-6.17-9.62-9.31-14.39-1.45-2.2-2.74-4.63-4.62-6.41-2.92-2.75-7.66-1.77-7.71,1.4-.16,11.25-.06,22.5-.06,34h7.66v-22l1.3-.18c3.53,5.75,7,11.54,10.62,17.23a13.07,13.07,0,0,0,3.85,4.4,7.46,7.46,0,0,0,5.13.57c.66-.16,1.13-2.47,1.14-3.8.1-8.82,0-17.63,0-26.44v-6.64l-6.44.65Zm14.94,15.35c6.87,0,13.32.12,19.75-.12,1.14,0,2.22-1.57,3.33-2.41-1.14-.88-2.21-2.36-3.44-2.5-3.11-.37-6.32.1-9.44-.25-1.24-.14-3.23-1.45-3.33-2.4a103.36,103.36,0,0,1-.16-11.26h13.89l-.65-5.64c-3.2,0-6,.16-8.79,0-2-.15-5.15,1.24-5.13-2.68,0-3.56,1.59-5.51,5.58-4.93a21.86,21.86,0,0,0,6.46-.06c1-.15,1.8-1.33,2.7-2-.78-.86-1.54-2.42-2.35-2.45-6.07-.2-12.16-.11-18.42-.11Z" transform="translate(-337 -214.28)"/></svg>