<svg id="Calque_1" data-name="Calque 1" xmlns="http://www.w3.org/2000/svg" viewBox="0 0 169 169"><title>pdf</title><path d="M337,383.28v-169H506v169ZM498.84,221.47H344.31V375H498.84Z" transform="translate(-337 -214.28)"/><path d="M378.81,283.28c0-13.5,0-27,0-40.5,0-9.63,5.58-15.29,15.18-15.31q40.74-.1,81.49,0c9.55,0,15.29,5.75,15.31,15.29q.1,40.74,0,81.49c0,9.61-5.66,15.18-15.29,15.2q-40.74.07-81.49,0c-9.7,0-15.16-5.49-15.2-15.18C378.77,310.61,378.81,296.94,378.81,283.28Zm45.64,21.13c6.35,0,12.18.2,18-.05s9.54-4.29,9.69-10.06c.18-7.16.16-14.32,0-21.48-.13-5.53-3.68-9.74-9.1-10.14-6.08-.44-12.21-.1-18.57-.1Zm-24.62-14c2.69,0,4.51.05,6.32,0,6.89-.22,10.78-4.05,11-10.86.07-2.33.1-4.67,0-7-.29-5.1-3.38-9.29-8.35-9.72-6.36-.57-12.81-.14-19.34-.14v41.4h10.4Zm59.66-27.74V304.1h10.42V290.75l9.92-.59V279.92h-9.75v-7h9.83V262.72Z" transform="translate(-337 -214.28)"/><path d="M351,255.73h13.68v97.63h97.84v14c-1.68.12-3.42.34-5.16.34q-45,0-89.93,0c-11.33,0-16.43-5.16-16.43-16.44v-95.5Z" transform="translate(-337 -214.28)"/><path d="M435.22,273.25h6.2v20.52h-6.2Z" transform="translate(-337 -214.28)"/><path d="M400.22,273.24h6.19v6.53h-6.19Z" transform="translate(-337 -214.28)"/></svg>