<svg id="Calque_1" data-name="Calque 1" xmlns="http://www.w3.org/2000/svg" viewBox="0 0 169 169"><title>print</title><path d="M337,214.28H506v169H337Zm7.35,7.05V374.91h154.3V221.33Z" transform="translate(-337 -214.28)"/><path d="M442.24,301.45l-.51-8.59H363.24v28.9c-9.48,1.82-15.06-2.6-15.14-11.66q-.14-15.75,0-31.49c.07-7.62,4.51-12.2,12.13-12.23q42.22-.13,84.45,0c8,0,12.15,4.4,12.21,12.51,0,5.33,0,10.66,0,16,0,.49-.06,1-.12,2Zm-2.16-19.74c-2.71-2-4.2-4-5.48-3.85s-3.15,2.12-3.46,3.57c-.2.95,1.84,3.28,3,3.38C435.58,284.93,437.15,283.35,440.08,281.71Z" transform="translate(-337 -214.28)"/><path d="M493,337.61a31.92,31.92,0,1,1-63.83.3c-.07-18,14.09-32.31,31.76-32.13C479.12,306,493,319.72,493,337.61Zm-27.41,17.47V342.24h12.82V333.1h-13V320.56h-8.72v12.81H444.11v9.21H457v12.5Z" transform="translate(-337 -214.28)"/><path d="M367,262.3c0-7.71-.2-15,.07-22.32.17-4.73,3.31-7.38,7.85-7.42q27.74-.24,55.48,0c4.27,0,7.51,2.44,7.69,7,.3,7.45.08,14.93.08,22.75Z" transform="translate(-337 -214.28)"/><path d="M437.64,296.65c2.2,6.37-1.05,10-5.48,12.6-1.93-.57-3.64-1.48-5.35-1.49q-24.21-.17-48.44,0c-1.3,0-2.58,1.19-3.87,1.83,1.3.58,2.6,1.66,3.9,1.67,15.32.12,30.64.08,46,.08h5.21c-2.08,5.8-5.3,8-11.26,7.8-12.47-.5-25-.24-37.45-.07-2.12,0-4.23,1.17-6.34,1.8,2,.53,4.06,1.52,6.1,1.54,14,.13,27.94.07,42.4.07a80.48,80.48,0,0,1-2.43,9.39c-.36,1-2.2,1.91-3.37,1.92-14.15.12-28.3.16-42.45,0-4.7-.05-7.66-2.88-7.75-7.42-.2-9.79-.07-19.59-.07-29.73Z" transform="translate(-337 -214.28)"/></svg>