<svg id="Calque_1" data-name="Calque 1" xmlns="http://www.w3.org/2000/svg" viewBox="0 0 168 168"><title>screen</title><path d="M337.44,381.68v-168h168v168ZM499.17,220.05H343.8v154.3H499.17Z" transform="translate(-337.44 -213.68)"/><path d="M492,336.07c-.24,18.52-14.31,32.51-31.79,33.08A32.69,32.69,0,0,1,426,337.82c-.83-20,14.46-34.09,31.37-34.6C476.82,302.63,491.9,317.27,492,336.07Zm-37.8,18.37h9.54V340.86h13.58c0-2.68-.16-5.07.05-7.43.17-1.83-.5-2.16-2.12-2.12-3.81.09-7.62,0-11.72,0V317.8c-2.52,0-4.76.12-7,0-1.9-.13-2.54.51-2.48,2.42.13,3.65,0,7.3,0,11.2H440.78v9.71H454.2Z" transform="translate(-337.44 -213.68)"/><path d="M404.7,336.66V325.51H391.21c-9.67,0-19.35.11-29,0-2,0-4-.78-5.95-1.2V233.36H484.1c3.82,0,5,1.13,5.08,5.07.09,7.28.1,14.55.1,21.83q0,19.68,0,39.36c0,.68-.08,1.37-.14,2.25-2-1.25-4.08-2.11-5.52-3.6a7,7,0,0,1-1.65-4.45c-.12-17.76-.09-35.52-.09-53.28v-2.69H360.43a18.77,18.77,0,0,0-.18,1.89q-.09,37.44-.16,74.87c0,3.72,0,3.72,3.67,3.72h54.35c-4.4,8.14-3.55,16.75-3.75,25.46-6.27,0-12.41.08-18.54,0a2.92,2.92,0,0,1-2.84-3,3.23,3.23,0,0,1,2.48-3.63,25.78,25.78,0,0,1,4.74-.4C401.63,336.61,403.07,336.66,404.7,336.66Z" transform="translate(-337.44 -213.68)"/><path d="M455.32,280.76c0-4.49-.05-8.28.05-12.07,0-.64.68-1.26,1.05-1.9.3.62.86,1.23.86,1.85.08,5.12,0,10.23,0,15.39-1.78.94-2.62-.1-3.41-1.45-2.19-3.71-4.41-7.4-6.63-11.09-.26-.43-.59-.82-1.2-1.66,0,4.59.05,8.63,0,12.67,0,.66-.63,1.32-1,2-.33-.67-.93-1.33-.94-2-.08-5.11,0-10.22,0-15.36,1.75-.84,2.75,0,3.58,1.34,2.08,3.41,4.18,6.8,6.27,10.2C454.26,279.17,454.6,279.67,455.32,280.76Z" transform="translate(-337.44 -213.68)"/><path d="M425.05,284.15c-1.66.48-2.53.25-2.75-1.28a19.14,19.14,0,0,0-.57-2.32c-.92-3.46-2-4.16-5.76-3.57-.17,2.41-.32,4.83-.57,7.25a8.27,8.27,0,0,1-1.51.13V266.72a50.49,50.49,0,0,1,5.51,0c2.11.23,4.19.89,4.8,3.29s-.25,4.55-2.15,5.52Zm-9.22-9.1c2.48.2,4.92.59,6.08-1.93a4,4,0,0,0-.4-3.46c-1.48-1.92-3.65-1.3-5.68-1Z" transform="translate(-337.44 -213.68)"/><path d="M426.74,284.18c1.83-5.49,3.58-10.86,5.45-16.2a2.45,2.45,0,0,1,1.73-1.16,2,2,0,0,1,1.66.87c1.93,5.46,3.74,11,5.6,16.47-1.93.78-2.4-.38-2.87-1.66-1.28-3.54-2.92-4.58-6.45-3.43-1,.32-1.67,2.05-2.25,3.25S428.87,284.87,426.74,284.18ZM431.2,277h5.41l-2.74-8.46Z" transform="translate(-337.44 -213.68)"/><path d="M387.69,268.49c0,1.67,0,3,0,4.36a14.75,14.75,0,0,0,.23,1.65c1.79,0,3.53-.05,5.26,0,.43,0,.85.44,1.27.67-.41.34-.81.94-1.24,1-1.73.11-3.48.05-5.37.05v6.52c2,0,3.92-.07,5.87,0,.54,0,1.06.54,1.59.84-.49.26-1,.74-1.46.75-2.7.08-5.4,0-8.24,0V266.77c2.72,0,5.41,0,8.08,0,.37,0,.72.58,1.07.9-.4.26-.79.73-1.2.75C391.74,268.54,389.91,268.49,387.69,268.49Z" transform="translate(-337.44 -213.68)"/><path d="M410.74,268.35a11.78,11.78,0,0,1-2.29.08c-3.78-.53-6,.33-7.62,3.1a7.9,7.9,0,0,0,.5,9c1.92,2.53,4.56,2.61,7.38,2.24a3.3,3.3,0,0,1,2,.55,8.64,8.64,0,0,1-11.3-1.56c-2.7-3.18-2.62-8.95.17-12.2a9,9,0,0,1,11.05-2Z" transform="translate(-337.44 -213.68)"/></svg>