<svg id="Calque_1" data-name="Calque 1" xmlns="http://www.w3.org/2000/svg" viewBox="0 0 169 169"><title>tablet</title><path d="M337,383.28v-169H506v169Zm161.71-8.2V221.45H344.29V375.08Z" transform="translate(-337 -214.28)"/><path d="M451,296.7l-11.65,5.53V240.39H367v96h53.13l4,20.28c-1.2.1-2.61.32-4,.32q-27.24,0-54.48,0c-8.3,0-10.62-2.39-10.62-10.7V237.82c0-7.64,1.84-9.53,9.25-9.54h77.47c7.12,0,9.27,2.11,9.27,9.13C451,257.22,451,277,451,296.7Zm-48.28,55.95c3.76-.26,6.11-2.18,6.13-5.92s-2.35-6-6-5.94a5.44,5.44,0,0,0-5.82,5.62C396.86,350.21,399.09,352.16,402.72,352.65Z" transform="translate(-337 -214.28)"/><path d="M493,338a31.92,31.92,0,1,1-63.83-.44c.13-17.79,14.12-31.84,31.63-31.76C479.13,305.87,493,319.76,493,338Zm-14.52,4.24v-9H465.34V320.66h-8.69v12.73H444.22v9.22h12.6V355h8.79V342.22Z" transform="translate(-337 -214.28)"/></svg>