<svg id="Calque_1" data-name="Calque 1" xmlns="http://www.w3.org/2000/svg" viewBox="0 0 168 168"><title>uc</title><path d="M337.44,381.68v-168h168v168ZM343.8,220V374.35H499.08V220Z" transform="translate(-337.44 -213.68)"/><path d="M428.62,366.6a8.23,8.23,0,0,1-1.5.35c-10.62,0-21.25.19-31.86,0-9.29-.19-11.68-4.33-12.11-12.35-.06-.95-.06-1.92-.06-2.87q0-54.81,0-109.62a35.31,35.31,0,0,1,.61-6.65c1-5.19,3.84-8,9.11-8.2,9.58-.36,19.17-.33,28.75-.4a38.93,38.93,0,0,1,6.92.4c5.8,1,8.7,5.11,8.71,12.18,0,14.79,0,29.58,0,44.37,0,5-.1,9.92.05,14.87a4.45,4.45,0,0,1-2.38,4.45c-8.34,5.23-14.37,12.41-17.24,21.91-4.53,15-1.26,28.35,9.35,39.88C427.42,365.36,427.86,365.81,428.62,366.6ZM426,269.9V259.4c-10.27,0-20.39,0-30.5.08-.47,0-1.27,1-1.31,1.66-.17,2.14,0,4.31-.1,6.46-.1,1.79.59,2.37,2.35,2.33,4.55-.09,9.1,0,13.64,0ZM426,247.78v-9.5H394.3v9.5Zm-18.68,81.94c-1.33-1.23-2.41-2.28-3.54-3.28-3.41-3-5.47-2.78-8.34.8-1.3,1.62-1.47,3.05,0,4.67,2.5,2.76,3.64,3.22,5.83,1.88C403.2,332.59,405.06,331.22,407.28,329.72Z" transform="translate(-337.44 -213.68)"/><path d="M490.19,337.61a30.07,30.07,0,0,1-29.31,30.29c-18.55.34-32.05-13.12-31.73-31.5.3-16.63,14.15-29.71,31.14-29.58C476.75,307,490.25,320.79,490.19,337.61Zm-13.66,4.22v-8.9H463.91V320.5h-8.84v12.57H442.72v8.86h12.52V354.3h8.86V341.83Z" transform="translate(-337.44 -213.68)"/></svg>